<svg width="24" height="24" viewBox="0 0 24 24" fill="none" xmlns="http://www.w3.org/2000/svg">
<path d="M22 6.091H10C9.448 6.091 9 5.643 9 5.091C9 4.539 9.448 4.091 10 4.091H22C22.552 4.091 23 4.539 23 5.091C23 5.643 22.552 6.091 22 6.091Z" fill="black"/>
<path d="M4.542 6.091H2C1.448 6.091 1 5.643 1 5.091C1 4.539 1.448 4.091 2 4.091H4.542C5.094 4.091 5.542 4.539 5.542 5.091C5.542 5.643 5.094 6.091 4.542 6.091Z" fill="black"/>
<path d="M7.292 1.522C4.953 1.522 3.767 2.723 3.767 5.09C3.767 7.457 4.953 8.658 7.292 8.658C9.631 8.658 10.817 7.457 10.817 5.09C10.817 2.723 9.631 1.522 7.292 1.522Z" fill="black"/>
<path d="M13.958 13H2C1.448 13 1 12.552 1 12C1 11.448 1.448 11 2 11H13.958C14.51 11 14.958 11.448 14.958 12C14.958 12.552 14.51 13 13.958 13Z" fill="black"/>
<path d="M22 13H19.447C18.895 13 18.447 12.552 18.447 12C18.447 11.448 18.895 11 19.447 11H22C22.552 11 23 11.448 23 12C23 12.552 22.552 13 22 13Z" fill="black"/>
<path d="M16.708 8.43201C14.369 8.43201 13.183 9.63301 13.183 12C13.183 14.367 14.369 15.568 16.708 15.568C19.047 15.568 20.233 14.368 20.233 12C20.233 9.63201 19.047 8.43201 16.708 8.43201Z" fill="black"/>
<path d="M22 19.909H10.064C9.512 19.909 9.064 19.462 9.064 18.909C9.064 18.356 9.512 17.909 10.064 17.909H22C22.552 17.909 23 18.356 23 18.909C23 19.462 22.552 19.909 22 19.909Z" fill="black"/>
<path d="M4.575 19.909H2C1.448 19.909 1 19.462 1 18.909C1 18.356 1.448 17.909 2 17.909H4.575C5.127 17.909 5.575 18.356 5.575 18.909C5.575 19.462 5.127 19.909 4.575 19.909Z" fill="black"/>
<path d="M7.292 15.341C4.953 15.341 3.767 16.541 3.767 18.909C3.767 21.277 4.953 22.477 7.292 22.477C9.631 22.477 10.817 21.277 10.817 18.909C10.817 16.541 9.631 15.341 7.292 15.341Z" fill="black"/>
</svg>
